<svg id="Layer_1" enable-background="new 0 0 512.007 512.007" height="512" viewBox="0 0 512.007 512.007" width="512" xmlns="http://www.w3.org/2000/svg"><g><path d="m496.007 480.003c-15.57 0-22.366-4.077-31.772-9.72-10.604-6.362-23.802-14.28-48.234-14.28s-37.629 7.918-48.233 14.28c-9.405 5.643-16.2 9.72-31.77 9.72-15.568 0-22.363-4.077-31.768-9.72-10.604-6.362-23.8-14.28-48.232-14.28-24.431 0-37.627 7.918-48.23 14.28-9.404 5.643-16.199 9.72-31.766 9.72-15.568 0-22.363-4.077-31.768-9.72-10.604-6.362-23.8-14.28-48.232-14.28s-37.628 7.918-48.232 14.28c-9.405 5.643-16.2 9.72-31.769 9.72-8.836 0-16 7.164-16 16s7.164 16 16 16c24.432 0 37.629-7.918 48.232-14.28 9.405-5.643 16.2-9.72 31.768-9.72s22.363 4.077 31.768 9.72c10.604 6.362 23.8 14.28 48.232 14.28 24.431 0 37.627-7.918 48.231-14.28 9.404-5.643 16.199-9.72 31.766-9.72 15.568 0 22.364 4.077 31.769 9.72 10.604 6.362 23.8 14.28 48.232 14.28s37.629-7.918 48.233-14.28c9.405-5.643 16.2-9.72 31.77-9.72s22.366 4.077 31.771 9.72c10.604 6.362 23.802 14.28 48.235 14.28 8.836 0 16-7.164 16-16s-7.165-16-16.001-16z"/><path d="m496.007 400.003c-15.57 0-22.366-4.077-31.772-9.72-10.604-6.362-23.802-14.28-48.234-14.28s-37.629 7.918-48.233 14.28c-9.405 5.643-16.2 9.72-31.77 9.72-15.568 0-22.363-4.077-31.768-9.72-10.604-6.362-23.8-14.28-48.232-14.28-24.431 0-37.627 7.918-48.23 14.28-9.404 5.643-16.199 9.72-31.766 9.72-15.568 0-22.363-4.077-31.768-9.72-10.604-6.362-23.8-14.28-48.232-14.28s-37.628 7.918-48.232 14.28c-9.405 5.643-16.2 9.72-31.769 9.72-8.836 0-16 7.164-16 16s7.164 16 16 16c24.432 0 37.629-7.918 48.232-14.28 9.405-5.643 16.2-9.72 31.768-9.72s22.363 4.077 31.768 9.72c10.604 6.362 23.8 14.28 48.232 14.28 24.431 0 37.627-7.918 48.231-14.28 9.404-5.643 16.199-9.72 31.766-9.72 15.568 0 22.364 4.077 31.769 9.72 10.604 6.362 23.8 14.28 48.232 14.28s37.629-7.918 48.233-14.28c9.405-5.643 16.2-9.72 31.77-9.72s22.366 4.077 31.771 9.72c10.604 6.362 23.802 14.28 48.235 14.28 8.836 0 16-7.164 16-16s-7.165-16-16.001-16z"/><path d="m496.007 320.003c-15.57 0-22.366-4.077-31.772-9.72-10.604-6.362-23.802-14.28-48.234-14.28s-37.629 7.918-48.233 14.28c-9.405 5.643-16.2 9.72-31.77 9.72-6.631 0-11.663-.745-15.991-2.03v-253.97c0-28.663 34.699-42.576 54.633-22.62 6.041 6.034 9.367 14.067 9.367 22.62v16h-32c-8.836 0-16 7.164-16 16s7.164 16 16 16h144c8.836 0 16-7.164 16-16s-7.164-16-16-16h-80v-16c0-35.353-28.6-64-64-64-35.29 0-64 28.71-64 64v88h-128v-88c0-28.663 34.699-42.576 54.633-22.62 6.041 6.034 9.367 14.067 9.367 22.62v16h-32c-8.836 0-16 7.164-16 16s7.164 16 16 16h48c8.836 0 16-7.164 16-16v-32c0-35.353-28.6-64-64-64-35.29 0-64 28.71-64 64v16h-112c-8.836 0-16 7.164-16 16s7.164 16 16 16h112v189.792c-8.155-3.305-18.316-5.792-32.006-5.792-24.432 0-37.628 7.918-48.232 14.28-9.405 5.643-16.2 9.72-31.769 9.72-8.836 0-16 7.164-16 16s7.164 16 16 16c24.432 0 37.629-7.918 48.232-14.28 9.405-5.643 16.2-9.72 31.768-9.72 20.255 0 25.888 7.025 40.335 14.631 12.423 6.8 25.892 9.369 39.665 9.369 24.431 0 37.627-7.918 48.231-14.28 9.404-5.643 16.199-9.72 31.766-9.72 20.218 0 25.735 6.95 40.358 14.644 12.4 6.769 25.792 9.356 39.642 9.356 24.432 0 37.629-7.918 48.233-14.28 9.405-5.643 16.2-9.72 31.77-9.72s22.366 4.077 31.771 9.72c10.604 6.362 23.802 14.28 48.235 14.28 8.836 0 16-7.164 16-16s-7.163-16-15.999-16zm-208-136v48h-128v-48zm-32.01 112c-24.431 0-37.627 7.918-48.23 14.28-9.404 5.643-16.199 9.72-31.766 9.72-6.633 0-11.666-.745-15.994-2.031v-53.969h128v37.793c-8.156-3.306-18.318-5.793-32.01-5.793z"/></g></svg>